<svg width="53" height="53" viewBox="0 0 53 53" fill="none" xmlns="http://www.w3.org/2000/svg">
<g id="Icon">
<circle id="Ellipse 15" cx="26.1658" cy="26.6861" r="26.1658" fill="#EAEAEA"/>
<path id="Vector" d="M25.7503 27.6521C27.7892 27.6521 29.4421 25.9992 29.4421 23.9603C29.4421 21.9214 27.7892 20.2686 25.7503 20.2686C23.7114 20.2686 22.0586 21.9214 22.0586 23.9603C22.0586 25.9992 23.7114 27.6521 25.7503 27.6521Z" stroke="#181818" stroke-width="2" stroke-linecap="round" stroke-linejoin="round"/>
<path id="Vector_2" d="M34.9783 23.9603C34.9783 32.2668 25.7489 38.7274 25.7489 38.7274C25.7489 38.7274 16.5195 32.2668 16.5195 23.9603C16.5195 21.5126 17.4919 19.165 19.2228 17.4342C20.9536 15.7033 23.3011 14.731 25.7489 14.731C28.1967 14.731 30.5442 15.7033 32.2751 17.4342C34.0059 19.165 34.9783 21.5126 34.9783 23.9603V23.9603Z" stroke="#181818" stroke-width="2" stroke-linecap="round" stroke-linejoin="round"/>
</g>
</svg>
