<svg width="14" height="18" viewBox="0 0 14 18" fill="none" xmlns="http://www.w3.org/2000/svg">
<g id="Icon">
<path id="Icon_2" d="M7.20425 9.58868C8.50577 9.58868 9.56085 8.5336 9.56085 7.23209C9.56085 5.93057 8.50577 4.87549 7.20425 4.87549C5.90274 4.87549 4.84766 5.93057 4.84766 7.23209C4.84766 8.5336 5.90274 9.58868 7.20425 9.58868Z" stroke="#FFCC4A" stroke-linecap="round" stroke-linejoin="round"/>
<path id="Icon_3" d="M13.0955 7.23231C13.0955 12.5347 7.20399 16.6587 7.20399 16.6587C7.20399 16.6587 1.3125 12.5347 1.3125 7.23231C1.3125 5.66979 1.93321 4.17127 3.03808 3.0664C4.14295 1.96153 5.64147 1.34082 7.20399 1.34082C8.76652 1.34082 10.265 1.96153 11.3699 3.0664C12.4748 4.17127 13.0955 5.66979 13.0955 7.23231V7.23231Z" stroke="#FFCC4A" stroke-linecap="round" stroke-linejoin="round"/>
</g>
</svg>
