<svg width="23" height="23" viewBox="0 0 23 23" fill="none" xmlns="http://www.w3.org/2000/svg">
<path id="Vector" d="M11.1912 0.12207C8.97777 0.12207 6.81407 0.778421 4.97369 2.00812C3.13332 3.23782 1.69892 4.98565 0.851882 7.03057C0.00484896 9.07548 -0.216774 11.3257 0.21504 13.4965C0.646854 15.6674 1.71271 17.6615 3.27782 19.2266C4.84294 20.7917 6.83701 21.8576 9.00789 22.2894C11.1788 22.7212 13.4289 22.4996 15.4739 21.6525C17.5188 20.8055 19.2666 19.3711 20.4963 17.5307C21.726 15.6903 22.3823 13.5266 22.3823 11.3132C22.3767 8.34691 21.1958 5.50369 19.0982 3.40617C17.0007 1.30865 14.1575 0.127758 11.1912 0.12207ZM15.065 7.8698C15.3204 7.8698 15.5701 7.94554 15.7824 8.08743C15.9948 8.22931 16.1603 8.43099 16.258 8.66694C16.3558 8.90289 16.3813 9.16253 16.3315 9.41301C16.2817 9.6635 16.1587 9.89358 15.9781 10.0742C15.7975 10.2548 15.5674 10.3777 15.317 10.4276C15.0665 10.4774 14.8068 10.4518 14.5709 10.3541C14.3349 10.2564 14.1333 10.0908 13.9914 9.87849C13.8495 9.66614 13.7738 9.41649 13.7738 9.16109C13.7738 8.81862 13.9098 8.49018 14.152 8.24801C14.3941 8.00585 14.7226 7.8698 15.065 7.8698ZM7.31731 7.8698C7.5727 7.8698 7.82236 7.94554 8.03471 8.08743C8.24706 8.22931 8.41257 8.43099 8.5103 8.66694C8.60804 8.90289 8.63361 9.16253 8.58379 9.41301C8.53396 9.6635 8.41098 9.89358 8.23039 10.0742C8.0498 10.2548 7.81971 10.3777 7.56923 10.4276C7.31874 10.4774 7.05911 10.4518 6.82315 10.3541C6.5872 10.2564 6.38553 10.0908 6.24364 9.87849C6.10175 9.66614 6.02602 9.41649 6.02602 9.16109C6.02602 8.81862 6.16207 8.49018 6.40423 8.24801C6.64639 8.00585 6.97484 7.8698 7.31731 7.8698ZM16.4101 14.3262C15.8813 15.2424 15.1206 16.0033 14.2044 16.5323C13.2883 17.0612 12.2491 17.3397 11.1912 17.3397C10.1333 17.3397 9.09406 17.0612 8.17793 16.5323C7.2618 16.0033 6.50107 15.2424 5.97222 14.3262C5.90484 14.2285 5.85841 14.1179 5.83584 14.0013C5.81328 13.8848 5.81506 13.7648 5.84107 13.649C5.86709 13.5332 5.91679 13.424 5.98703 13.3283C6.05728 13.2326 6.14655 13.1525 6.24926 13.0929C6.35196 13.0334 6.46587 12.9957 6.58382 12.9823C6.70177 12.9689 6.82123 12.9801 6.93467 13.015C7.04811 13.05 7.15309 13.1081 7.24301 13.1856C7.33294 13.2631 7.40586 13.3584 7.4572 13.4654C7.83632 14.12 8.38086 14.6634 9.03622 15.0412C9.69158 15.4189 10.4347 15.6178 11.1912 15.6178C11.9476 15.6178 12.6908 15.4189 13.3461 15.0412C14.0015 14.6634 14.546 14.12 14.9252 13.4654C15.0481 13.287 15.2339 13.1615 15.4453 13.114C15.6567 13.0665 15.8782 13.1005 16.0657 13.2092C16.2531 13.3179 16.3927 13.4932 16.4566 13.7003C16.5204 13.9074 16.5038 14.1309 16.4101 14.3262Z" fill="#4EAF4E"/>
</svg>
