<svg width="19" height="19" viewBox="0 0 19 19" fill="none" xmlns="http://www.w3.org/2000/svg">
<g id="Instagram">
<path id="Icon" d="M12.8312 2.43433C13.8238 2.43719 14.7749 2.81788 15.4768 3.49328C16.1786 4.16868 16.5743 5.0839 16.5772 6.03905V13.2477C16.5743 14.2029 16.1786 15.1181 15.4768 15.7935C14.7749 16.4689 13.8238 16.8496 12.8312 16.8524H5.33992C4.34732 16.8496 3.39622 16.4689 2.69434 15.7935C1.99247 15.1181 1.59684 14.2029 1.59388 13.2477V6.03905C1.59684 5.0839 1.99247 4.16868 2.69434 3.49328C3.39622 2.81788 4.34732 2.43719 5.33992 2.43433H12.8312ZM12.8312 0.992676H5.33992C2.45554 0.992676 0.0957031 3.26349 0.0957031 6.03905V13.2477C0.0957031 16.0233 2.45554 18.2941 5.33992 18.2941H12.8312C15.7156 18.2941 18.0754 16.0233 18.0754 13.2477V6.03905C18.0754 3.26349 15.7156 0.992676 12.8312 0.992676Z" fill="white"/>
<path id="Icon_2" d="M13.9551 6.03963C13.7329 6.03963 13.5156 5.97621 13.3308 5.85739C13.146 5.73857 13.002 5.56969 12.9169 5.3721C12.8319 5.17451 12.8096 4.95709 12.853 4.74733C12.8963 4.53757 13.0034 4.3449 13.1605 4.19367C13.3177 4.04244 13.5179 3.93945 13.7359 3.89773C13.9539 3.85601 14.1798 3.87742 14.3852 3.95927C14.5905 4.04111 14.766 4.17971 14.8895 4.35753C15.0129 4.53536 15.0788 4.74442 15.0788 4.95829C15.0792 5.10038 15.0503 5.24113 14.994 5.37246C14.9376 5.5038 14.8548 5.62312 14.7504 5.7236C14.646 5.82407 14.522 5.90371 14.3855 5.95794C14.249 6.01218 14.1028 6.03994 13.9551 6.03963ZM9.08575 6.76027C9.67845 6.76027 10.2578 6.92939 10.7507 7.24626C11.2435 7.56312 11.6276 8.0135 11.8544 8.54042C12.0812 9.06735 12.1405 9.64717 12.0249 10.2065C11.9093 10.7659 11.6239 11.2798 11.2048 11.6831C10.7857 12.0863 10.2517 12.361 9.67039 12.4723C9.08907 12.5835 8.48653 12.5264 7.93894 12.3082C7.39136 12.0899 6.92333 11.7203 6.59404 11.2461C6.26475 10.7718 6.089 10.2143 6.089 9.64397C6.08985 8.87941 6.40585 8.14641 6.96766 7.60579C7.52948 7.06517 8.29122 6.76109 9.08575 6.76027ZM9.08575 5.31861C8.19674 5.31861 7.32769 5.57229 6.5885 6.04756C5.84931 6.52284 5.27319 7.19837 4.93298 7.98872C4.59277 8.77908 4.50375 9.64877 4.67719 10.4878C4.85063 11.3268 5.27873 12.0975 5.90736 12.7025C6.53598 13.3074 7.3369 13.7193 8.20883 13.8862C9.08076 14.0531 9.98454 13.9675 10.8059 13.6401C11.6272 13.3127 12.3292 12.7583 12.8231 12.047C13.3171 11.3357 13.5807 10.4994 13.5807 9.64397C13.5807 8.49681 13.1071 7.39664 12.2641 6.58548C11.4212 5.77432 10.2779 5.31861 9.08575 5.31861Z" fill="white"/>
</g>
</svg>
