<svg width="19" height="19" viewBox="0 0 19 19" fill="none" xmlns="http://www.w3.org/2000/svg">
<g id="Linked-In">
<path id="Icon" d="M17.2783 0.620117H2.21773C1.39479 0.620117 0.675781 1.21224 0.675781 2.02551V17.1195C0.675781 17.9372 1.39479 18.6659 2.21773 18.6659H17.2739C18.1012 18.6659 18.7215 17.9324 18.7215 17.1195V2.02551C18.7264 1.21224 18.1012 0.620117 17.2783 0.620117ZM6.26957 15.6622H3.68435V7.62413H6.26957V15.6622ZM5.06638 6.40201H5.04785C4.22049 6.40201 3.68475 5.78612 3.68475 5.01515C3.68475 4.23008 4.23458 3.62869 5.08048 3.62869C5.92637 3.62869 6.44398 4.22565 6.46251 5.01515C6.46211 5.78612 5.92637 6.40201 5.06638 6.40201ZM15.7178 15.6622H13.1326V11.2671C13.1326 10.2142 12.7564 9.49477 11.8211 9.49477C11.1065 9.49477 10.6835 9.97814 10.4954 10.449C10.4249 10.6182 10.406 10.8486 10.406 11.0838V15.6622H7.82078V7.62413H10.406V8.74273C10.7822 8.20699 11.3699 7.43602 12.7374 7.43602C14.4345 7.43602 15.7182 8.55462 15.7182 10.9662L15.7178 15.6622Z" fill="white"/>
</g>
</svg>
