<svg width="30" height="29" viewBox="0 0 30 29" fill="none" xmlns="http://www.w3.org/2000/svg">
<g id="Logo">
<path id="Union" d="M26.5559 21.4521C28.0658 21.4521 29.2898 20.2281 29.2898 18.7183V3.05951C29.2898 1.54966 28.0658 0.325686 26.5559 0.325686L2.73382 0.325684C1.22398 0.325683 3.23724e-06 1.54965 1.36893e-06 3.0595L0 18.7183C-1.31995e-07 20.2281 1.22397 21.4521 2.73382 21.4521H13.8886C13.8922 21.4558 13.8958 21.4594 13.8994 21.463L20.963 28.5266C21.537 29.1007 22.5186 28.6941 22.5186 27.8822V21.4521H26.5559Z" fill="#FFCC4A"/>
<rect id="Rectangle 8" x="7.45508" y="13.7554" width="13.6603" height="1.52692" rx="0.76346" fill="#1B1B1B"/>
<rect id="Rectangle 7" x="7.45508" y="9.81787" width="13.6603" height="1.52692" rx="0.76346" fill="#1B1B1B"/>
<rect id="Rectangle 6" x="7.45508" y="6.28662" width="13.6603" height="1.52692" rx="0.76346" fill="#1B1B1B"/>
</g>
</svg>
