<svg width="86" height="50" viewBox="0 0 86 50" fill="none" xmlns="http://www.w3.org/2000/svg">
<path id="&#226;&#128;&#156;" d="M85.0898 0.349609C83.8529 5.62305 82.5833 11.1569 81.2812 16.9512C80.0443 22.7454 78.9049 28.4421 77.8633 34.041C76.8216 39.5749 75.9427 44.653 75.2266 49.2754H47.8828L46.5156 47.127C47.6875 42.3743 49.1849 37.3288 51.0078 31.9902C52.8958 26.5866 54.9141 21.1829 57.0625 15.7793C59.276 10.3105 61.4896 5.16732 63.7031 0.349609H85.0898ZM39.4844 0.349609C38.2474 5.62305 36.9779 11.1569 35.6758 16.9512C34.4388 22.7454 33.2995 28.4421 32.2578 34.041C31.2161 39.5749 30.3372 44.653 29.6211 49.2754H2.27734L0.910156 47.127C2.08203 42.3743 3.57943 37.3288 5.40234 31.9902C7.29036 26.5866 9.30859 21.1829 11.457 15.7793C13.6706 10.3105 15.8841 5.16732 18.0977 0.349609H39.4844Z" fill="#FFCC4A"/>
</svg>
