<svg width="105" height="66" viewBox="0 0 105 66" fill="none" xmlns="http://www.w3.org/2000/svg">
<g id="5">
<circle id="Ellipse 14" cx="22.864" cy="50.1579" r="15.5573" fill="#DADADA"/>
<path id="Star 13" d="M77.7483 1.66079C77.898 1.20013 78.5497 1.20014 78.6994 1.66079L79.6648 4.63213C79.7318 4.83814 79.9237 4.97762 80.1404 4.97762H83.2646C83.749 4.97762 83.9504 5.59743 83.5585 5.88213L81.0309 7.71852C80.8557 7.84584 80.7824 8.07152 80.8493 8.27753L81.8147 11.2489C81.9644 11.7095 81.4372 12.0926 81.0453 11.8079L78.5177 9.9715C78.3425 9.84418 78.1052 9.84418 77.93 9.9715L75.4024 11.8079C75.0105 12.0926 74.4833 11.7095 74.633 11.2489L75.5984 8.27753C75.6654 8.07152 75.592 7.84584 75.4168 7.71852L72.8892 5.88213C72.4974 5.59743 72.6987 4.97762 73.1831 4.97762H76.3074C76.524 4.97762 76.7159 4.83814 76.7829 4.63213L77.7483 1.66079Z" fill="#141414"/>
<path id="Polygon 1" d="M12.1127 54.7312C12.3849 55.0033 12.2604 55.4681 11.8886 55.5677L3.84329 57.7234C3.47151 57.823 3.1313 57.4828 3.23092 57.111L5.38665 49.0658C5.48626 48.694 5.951 48.5694 6.22316 48.8416L12.1127 54.7312Z" fill="#4EAF4E"/>
<circle id="Ellipse 13" cx="97.8173" cy="21.6025" r="7.05852" fill="#DADADA"/>
<g id="Icon">
<path id="Rectangle 31" d="M22.6826 28.5752H79.1753V54.6457C79.1753 55.7502 78.2798 56.6457 77.1753 56.6457H25.6826C24.0258 56.6457 22.6826 55.3025 22.6826 53.6457V28.5752Z" fill="#FFCC4A"/>
<path id="Rectangle 32" d="M64.7803 28.1365L22.6765 28.1365L22.6765 20.6767C22.6765 19.0198 24.0196 17.6767 25.6765 17.6767L62.7803 17.6767C63.8848 17.6767 64.7803 18.5721 64.7803 19.6767L64.7803 28.1365Z" fill="#4EAF4E" stroke="#141414" stroke-width="2"/>
<path id="Vector" d="M76.5285 17.4087H24.5833C23.388 17.4087 22.4189 18.3777 22.4189 19.5731V54.2032C22.4189 55.3986 23.388 56.3676 24.5833 56.3676H76.5285C77.7239 56.3676 78.6929 55.3986 78.6929 54.2032V19.5731C78.6929 18.3777 77.7239 17.4087 76.5285 17.4087Z" stroke="#141414" stroke-width="2" stroke-linecap="round" stroke-linejoin="round"/>
<path id="Vector_2" d="M61.3779 47.7102H70.0355" stroke="#141414" stroke-width="2" stroke-linecap="round" stroke-linejoin="round"/>
<path id="Vector_3" d="M48.3916 47.7102H52.7204" stroke="#141414" stroke-width="2" stroke-linecap="round" stroke-linejoin="round"/>
<path id="Vector_4" d="M22.4189 28.4744H78.6929" stroke="#141414" stroke-width="2" stroke-linecap="round" stroke-linejoin="round"/>
</g>
</g>
</svg>
