<svg width="102" height="72" viewBox="0 0 102 72" fill="none" xmlns="http://www.w3.org/2000/svg">
<g id="3">
<g id="Icon">
<circle id="Ellipse 14" cx="73.8118" cy="26.9973" r="23.7884" fill="#DADADA"/>
<path id="Star 13" d="M94.7931 51.552C94.9428 51.0914 95.5945 51.0914 95.7441 51.552L96.6677 54.3944C96.7346 54.6004 96.9266 54.7399 97.1432 54.7399H100.132C100.616 54.7399 100.818 55.3597 100.426 55.6444L98.0079 57.401C97.8326 57.5284 97.7593 57.754 97.8262 57.96L98.7498 60.8024C98.8994 61.263 98.3722 61.6461 97.9803 61.3614L95.5625 59.6047C95.3873 59.4774 95.15 59.4774 94.9747 59.6047L92.5569 61.3614C92.165 61.6461 91.6378 61.263 91.7875 60.8024L92.711 57.96C92.7779 57.754 92.7046 57.5284 92.5294 57.401L90.1115 55.6444C89.7197 55.3597 89.9211 54.7399 90.4054 54.7399H93.394C93.6106 54.7399 93.8026 54.6004 93.8696 54.3944L94.7931 51.552Z" fill="#141414"/>
<path id="Polygon 1" d="M15.1511 38.0138C15.4233 38.286 15.2987 38.7507 14.927 38.8503L4.61738 41.6128C4.2456 41.7124 3.90539 41.3722 4.00501 41.0004L6.76745 30.6908C6.86707 30.319 7.3318 30.1945 7.60397 30.4667L15.1511 38.0138Z" fill="#4EAF4E"/>
<circle id="Ellipse 13" cx="48.3847" cy="5.14449" r="5.02144" fill="#DADADA"/>
</g>
<g id="Icon_2">
<path id="Vector" d="M80.2435 23.9062H22.0958C20.8607 23.9062 19.8594 24.9075 19.8594 26.1427V57.453C19.8594 58.6881 20.8607 59.6894 22.0958 59.6894H80.2435C81.4787 59.6894 82.48 58.6881 82.48 57.453V26.1427C82.48 24.9075 81.4787 23.9062 80.2435 23.9062Z" fill="#EBEBEB" stroke="#141414" stroke-width="2" stroke-linecap="round" stroke-linejoin="round"/>
<path id="Vector 2" d="M82.5859 43.8401L64.6772 59.835L79.5859 59.835C81.2428 59.835 82.5859 58.4918 82.5859 56.835L82.5859 43.8401Z" fill="#4EAF4E" stroke="black"/>
<path id="Vector 1" d="M19.7539 39.6439L37.6627 23.649H22.7539C21.0971 23.649 19.7539 24.9922 19.7539 26.649V39.6439Z" fill="#4EAF4E" stroke="black"/>
<path id="Vector_2" d="M51.1685 50.7438C56.1091 50.7438 60.1143 46.7386 60.1143 41.798C60.1143 36.8573 56.1091 32.8522 51.1685 32.8522C46.2278 32.8522 42.2227 36.8573 42.2227 41.798C42.2227 46.7386 46.2278 50.7438 51.1685 50.7438Z" fill="#FFCC4A" stroke="#141414" stroke-width="2" stroke-linecap="round" stroke-linejoin="round"/>
<path id="Vector_3" d="M64.5879 23.9062L82.4795 39.5614" stroke="#141414" stroke-width="2" stroke-linecap="round" stroke-linejoin="round"/>
<path id="Vector_4" d="M64.5879 59.6894L82.4795 44.0343" stroke="#141414" stroke-width="2" stroke-linecap="round" stroke-linejoin="round"/>
<path id="Vector_5" d="M37.751 23.9062L19.8594 39.5614" stroke="#141414" stroke-width="2" stroke-linecap="round" stroke-linejoin="round"/>
<path id="Vector_6" d="M37.751 59.6894L19.8594 44.0343" stroke="#141414" stroke-width="2" stroke-linecap="round" stroke-linejoin="round"/>
</g>
</g>
</svg>
