<svg width="89" height="88" viewBox="0 0 89 88" fill="none" xmlns="http://www.w3.org/2000/svg">
<g id="4">
<circle id="Ellipse 14" cx="21.289" cy="66.7081" r="20.8965" fill="#DADADA"/>
<path id="Star 13" d="M56.6924 1.78579C56.8421 1.32514 57.4938 1.32514 57.6435 1.78579L58.7665 5.24214C58.8335 5.44815 59.0254 5.58763 59.2421 5.58763L62.8763 5.58763C63.3606 5.58763 63.562 6.20744 63.1702 6.49214L60.23 8.62828C60.0548 8.7556 59.9814 8.98129 60.0484 9.1873L61.1714 12.6436C61.3211 13.1043 60.7939 13.4874 60.402 13.2027L57.4619 11.0665C57.2866 10.9392 57.0493 10.9392 56.8741 11.0665L53.9339 13.2027C53.5421 13.4874 53.0148 13.1043 53.1645 12.6436L54.2875 9.1873C54.3545 8.98129 54.2811 8.7556 54.1059 8.62828L51.1658 6.49214C50.7739 6.20744 50.9753 5.58763 51.4596 5.58763L55.0939 5.58763C55.3105 5.58763 55.5025 5.44815 55.5694 5.24214L56.6924 1.78579Z" fill="#141414"/>
<path id="Polygon 1" d="M29.5893 68.9522C29.8614 69.2244 29.7369 69.6891 29.3651 69.7887L19.3377 72.4756C18.9659 72.5752 18.6257 72.235 18.7253 71.8632L21.4122 61.8358C21.5118 61.464 21.9765 61.3395 22.2487 61.6116L29.5893 68.9522Z" fill="#4EAF4E"/>
<circle id="Ellipse 13" cx="73.3732" cy="23.7543" r="6.02949" fill="#DADADA"/>
<g id="Icon">
<g id="Vector">
<path d="M63.8211 34.5193C75.0297 35.5634 83.4746 40.0161 83.4746 45.3594C83.4746 51.4704 72.4809 56.4145 58.9077 56.4145C52.8888 56.4145 47.3613 55.4319 43.0928 53.835" fill="#4EAF4E"/>
<path d="M63.8211 34.5193C75.0297 35.5634 83.4746 40.0161 83.4746 45.3594C83.4746 51.4704 72.4809 56.4145 58.9077 56.4145C52.8888 56.4145 47.3613 55.4319 43.0928 53.835" stroke="#141414" stroke-width="2" stroke-linecap="round" stroke-linejoin="round"/>
</g>
<g id="Vector_2">
<path d="M14.6865 30.6193V42.9027C14.6865 49.0137 25.6802 53.9578 39.2534 53.9578C52.8266 53.9578 63.8203 49.0137 63.8203 42.9027V30.6193" fill="white"/>
<path d="M14.6865 30.6193V42.9027C14.6865 49.0137 25.6802 53.9578 39.2534 53.9578C52.8266 53.9578 63.8203 49.0137 63.8203 42.9027V30.6193" stroke="#141414" stroke-width="2" stroke-linecap="round" stroke-linejoin="round"/>
</g>
<path id="Vector_3" d="M39.2534 41.6744C52.8213 41.6744 63.8203 36.7249 63.8203 30.6193C63.8203 24.5137 52.8213 19.5642 39.2534 19.5642C25.6855 19.5642 14.6865 24.5137 14.6865 30.6193C14.6865 36.7249 25.6855 41.6744 39.2534 41.6744Z" fill="#FFCC4A" stroke="#141414" stroke-width="2" stroke-linecap="round" stroke-linejoin="round"/>
<path id="Vector_4" d="M29.4268 40.7532V53.0366" stroke="#141414" stroke-width="2" stroke-linecap="round" stroke-linejoin="round"/>
<path id="Vector_5" d="M34.3408 53.743V57.6429C34.3408 63.754 45.3345 68.6981 58.9077 68.6981C72.4809 68.6981 83.4746 63.754 83.4746 57.6429V45.3595" stroke="#141414" stroke-width="2" stroke-linecap="round" stroke-linejoin="round"/>
<path id="Vector_6" d="M68.7344 55.4934V67.7769" stroke="#141414" stroke-width="2" stroke-linecap="round" stroke-linejoin="round"/>
<path id="Vector_7" d="M49.0801 40.7532V67.7768" stroke="#141414" stroke-width="2" stroke-linecap="round" stroke-linejoin="round"/>
</g>
</g>
</svg>
