<svg width="102" height="91" viewBox="0 0 102 91" fill="none" xmlns="http://www.w3.org/2000/svg">
<g id="6">
<circle id="Ellipse 14" cx="24.4603" cy="66.7836" r="23.7884" fill="#DADADA"/>
<path id="Star 13" d="M74.9239 2.05337C75.0736 1.59271 75.7253 1.59271 75.875 2.05337L76.7985 4.89571C76.8655 5.10172 77.0575 5.2412 77.2741 5.2412H80.2627C80.747 5.2412 80.9484 5.86101 80.5566 6.14571L78.1387 7.90237C77.9635 8.02969 77.8902 8.25538 77.9571 8.46139L78.8806 11.3037C79.0303 11.7644 78.5031 12.1474 78.1112 11.8627L75.6934 10.1061C75.5181 9.97876 75.2808 9.97876 75.1056 10.1061L72.6877 11.8627C72.2959 12.1474 71.7686 11.7644 71.9183 11.3037L72.8419 8.46139C72.9088 8.25538 72.8355 8.02969 72.6602 7.90237L70.2424 6.14571C69.8505 5.86101 70.0519 5.2412 70.5363 5.2412H73.5249C73.7415 5.2412 73.9335 5.10172 74.0004 4.89571L74.9239 2.05337Z" fill="#141414"/>
<path id="Polygon 1" d="M16.6365 44.5787C16.9086 44.8509 16.7841 45.3156 16.4123 45.4153L6.10274 48.1777C5.73095 48.2773 5.39074 47.9371 5.49036 47.5653L8.25281 37.2557C8.35242 36.884 8.81716 36.7594 9.08932 37.0316L16.6365 44.5787Z" fill="#4EAF4E"/>
<circle id="Ellipse 13" cx="94.0617" cy="18.2664" r="7.25703" fill="#DADADA"/>
<g id="Icon">
<g id="Group 6">
<rect id="Rectangle 33" x="29.3516" y="57.0175" width="51.8211" height="8.02848" fill="#4EAF4E"/>
<path id="Vector" d="M26.8965 35.1358H83.627L55.2618 17.6803L26.8965 35.1358Z" fill="#FFCC4A" stroke="#141414" stroke-width="2" stroke-linecap="round" stroke-linejoin="round"/>
<path id="Vector_2" d="M35.625 35.1359V56.9553" stroke="#141414" stroke-width="2" stroke-linecap="round" stroke-linejoin="round"/>
<path id="Vector_3" d="M48.7158 35.1359V56.9553" stroke="#141414" stroke-width="2" stroke-linecap="round" stroke-linejoin="round"/>
<path id="Vector_4" d="M61.8076 35.1359V56.9553" stroke="#141414" stroke-width="2" stroke-linecap="round" stroke-linejoin="round"/>
<path id="Vector_5" d="M74.8994 35.1359V56.9553" stroke="#141414" stroke-width="2" stroke-linecap="round" stroke-linejoin="round"/>
<path id="Vector_6" d="M29.0791 56.9552H81.4458" stroke="#141414" stroke-width="2" stroke-linecap="round" stroke-linejoin="round"/>
<path id="Vector_7" d="M24.7148 65.6831H85.8093" stroke="#141414" stroke-width="2" stroke-linecap="round" stroke-linejoin="round"/>
</g>
</g>
</g>
</svg>
