<svg width="99" height="91" viewBox="0 0 99 91" fill="none" xmlns="http://www.w3.org/2000/svg">
<g id="1">
<circle id="Ellipse 14" cx="23.7884" cy="66.4388" r="23.7884" fill="#DDDDDD"/>
<path id="Star 13" d="M79.3849 2.15493C79.5346 1.69428 80.1863 1.69428 80.3359 2.15493L81.2595 4.99727C81.3264 5.20328 81.5184 5.34276 81.735 5.34276H84.7236C85.208 5.34276 85.4094 5.96257 85.0175 6.24727L82.5997 8.00393C82.4244 8.13126 82.3511 8.35694 82.418 8.56295L83.3416 11.4053C83.4912 11.8659 82.964 12.249 82.5721 11.9643L80.1543 10.2076C79.9791 10.0803 79.7418 10.0803 79.5665 10.2076L77.1487 11.9643C76.7568 12.249 76.2296 11.8659 76.3793 11.4053L77.3028 8.56295C77.3697 8.35694 77.2964 8.13126 77.1212 8.00393L74.7033 6.24727C74.3115 5.96257 74.5128 5.34276 74.9972 5.34276H77.9858C78.2024 5.34276 78.3944 5.20328 78.4614 4.99727L79.3849 2.15493Z" fill="#141414"/>
<path id="Polygon 1" d="M29.698 77.5704C29.9701 77.8426 29.8456 78.3073 29.4738 78.407L19.1643 81.1694C18.7925 81.269 18.4523 80.9288 18.5519 80.557L21.3143 70.2474C21.4139 69.8757 21.8787 69.7511 22.1508 70.0233L29.698 77.5704Z" fill="#4EAF4E"/>
<circle id="Ellipse 13" cx="91.6047" cy="24.3936" r="7.25703" fill="#DADADA"/>
<g id="Icon">
<path id="Ellipse 12" d="M31.2999 62.0914C35.1137 68.697 41.3952 73.517 48.7628 75.4911C56.1303 77.4653 63.9803 76.4318 70.5859 72.6181C77.1914 68.8043 82.0115 62.5228 83.9856 55.1552C85.9597 47.7877 84.9263 39.9377 81.1125 33.3321L56.2062 47.7118L31.2999 62.0914Z" fill="#FFCC4A"/>
<path id="Vector" d="M55.9785 46.882V17.8397" stroke="#141414" stroke-width="2" stroke-linecap="round" stroke-linejoin="round"/>
<path id="Vector_2" d="M81.1194 32.361L30.8398 61.4033" stroke="#141414" stroke-width="2" stroke-linecap="round" stroke-linejoin="round"/>
<path id="Vector_3" d="M27.4199 52.2065C27.0897 50.4511 26.9276 48.6682 26.9358 46.8821C26.932 40.8758 28.7925 35.0163 32.2605 30.1123C35.7285 25.2083 40.6331 21.5016 46.2974 19.5037V41.2854L27.4199 52.2065Z" fill="#4EAF4E" stroke="#141414" stroke-width="2" stroke-linecap="round" stroke-linejoin="round"/>
<path id="Vector_4" d="M27.4199 52.2065C27.0897 50.4511 26.9276 48.6682 26.9358 46.8821C26.932 40.8758 28.7925 35.0163 32.2605 30.1123C35.7285 25.2083 40.6331 21.5016 46.2974 19.5037V41.2854L27.4199 52.2065Z" stroke="#141414" stroke-width="2" stroke-linecap="round" stroke-linejoin="round"/>
<path id="Vector_5" d="M55.9787 17.8397C61.0676 17.8403 66.0671 19.178 70.4763 21.719C74.8855 24.2599 78.5497 27.9148 81.1017 32.3176C83.6538 36.7203 85.0042 41.7164 85.0176 46.8053C85.031 51.8943 83.7071 56.8974 81.1783 61.3136C78.6495 65.7298 75.0047 69.404 70.609 71.9681C66.2133 74.5323 61.221 75.8965 56.1321 75.9239C51.0432 75.9514 46.0365 74.6412 41.6133 72.1246C37.1902 69.608 33.506 65.9733 30.9297 61.5847" stroke="#141414" stroke-width="2" stroke-linecap="round" stroke-linejoin="round"/>
</g>
</g>
</svg>
