<svg width="97" height="72" viewBox="0 0 97 72" fill="none" xmlns="http://www.w3.org/2000/svg">
<g id="2">
<g id="Icon">
<circle id="Ellipse 14" cx="65.7943" cy="27.7761" r="23.7884" fill="#EFEFEF"/>
<path id="Star 13" d="M35.3661 1.8561C35.5157 1.39545 36.1674 1.39545 36.3171 1.8561L37.4627 5.38181C37.5296 5.58783 37.7216 5.72731 37.9382 5.72731H41.6454C42.1297 5.72731 42.3311 6.34711 41.9393 6.63181L38.9401 8.81082C38.7649 8.93814 38.6915 9.16383 38.7585 9.36984L39.904 12.8956C40.0537 13.3562 39.5265 13.7393 39.1346 13.4546L36.1355 11.2756C35.9602 11.1482 35.7229 11.1482 35.5477 11.2756L32.5485 13.4546C32.1567 13.7393 31.6294 13.3562 31.7791 12.8955L32.9247 9.36984C32.9916 9.16383 32.9183 8.93814 32.7431 8.81082L29.7439 6.63181C29.3521 6.34711 29.5534 5.72731 30.0378 5.72731H33.745C33.9616 5.72731 34.1535 5.58783 34.2205 5.38181L35.3661 1.8561Z" fill="#FFCC4A"/>
<path id="Polygon 1" d="M15.3679 63.9252C15.6401 64.1973 15.5155 64.6621 15.1438 64.7617L4.83418 67.5241C4.4624 67.6237 4.12219 67.2835 4.22181 66.9118L6.98425 56.6022C7.08387 56.2304 7.5486 56.1059 7.82077 56.378L15.3679 63.9252Z" fill="#4EAF4E"/>
<circle id="Ellipse 13" cx="90.791" cy="20.3756" r="5.88667" fill="#D0D0D0"/>
</g>
<g id="Icon_2">
<path id="Vector" d="M77.1842 22.7028H29.6751C28.4825 22.7028 27.5156 23.6696 27.5156 24.8623V57.2548C27.5156 58.4475 28.4825 59.4143 29.6751 59.4143H77.1842C78.3768 59.4143 79.3437 58.4475 79.3437 57.2548V24.8623C79.3437 23.6696 78.3768 22.7028 77.1842 22.7028Z" fill="white" stroke="white" stroke-width="2" stroke-linecap="round" stroke-linejoin="round"/>
<path id="Vector_2" d="M77.1842 22.7028H29.6751C28.4825 22.7028 27.5156 23.6696 27.5156 24.8623V57.2548C27.5156 58.4475 28.4825 59.4143 29.6751 59.4143H77.1842C78.3768 59.4143 79.3437 58.4475 79.3437 57.2548V24.8623C79.3437 23.6696 78.3768 22.7028 77.1842 22.7028Z" stroke="#141414" stroke-width="2" stroke-linecap="round" stroke-linejoin="round"/>
<path id="Vector_3" d="M77.1842 49.1206H29.6751C28.4825 49.1206 27.5156 49.3917 27.5156 49.7261V58.8088C27.5156 59.1432 28.4825 59.4143 29.6751 59.4143H77.1842C78.3768 59.4143 79.3437 59.1432 79.3437 58.8088V49.7261C79.3437 49.3917 78.3768 49.1206 77.1842 49.1206Z" fill="#4EAF4E" stroke="#141414" stroke-width="2" stroke-linecap="round" stroke-linejoin="round"/>
<path id="Vector_4" d="M62.0684 59.4143L70.7064 70.2118" stroke="#141414" stroke-width="2" stroke-linecap="round" stroke-linejoin="round"/>
<path id="Vector_5" d="M44.7923 59.4143L36.1543 70.2118" stroke="#141414" stroke-width="2" stroke-linecap="round" stroke-linejoin="round"/>
<path id="Vector_6" d="M44.791 42.1383V48.6168" stroke="#141414" stroke-width="2" stroke-linecap="round" stroke-linejoin="round"/>
<path id="Vector_7" d="M53.4297 37.8193V48.6168" stroke="#141414" stroke-width="2" stroke-linecap="round" stroke-linejoin="round"/>
<path id="Vector_8" d="M62.0684 33.5004V48.6169" stroke="#141414" stroke-width="2" stroke-linecap="round" stroke-linejoin="round"/>
<path id="Vector_9" d="M53.4297 22.7027V16.2242" stroke="#141414" stroke-width="2" stroke-linecap="round" stroke-linejoin="round"/>
</g>
</g>
</svg>
