<svg width="23" height="22" viewBox="0 0 23 22" fill="none" xmlns="http://www.w3.org/2000/svg">
<path id="Star 12" d="M10.6931 0.926075C10.9925 0.0047648 12.2959 0.00476336 12.5952 0.926074L14.483 6.73593C14.6168 7.14795 15.0008 7.42691 15.434 7.42691H21.5429C22.5116 7.42691 22.9144 8.66652 22.1306 9.23593L17.1885 12.8266C16.838 13.0813 16.6913 13.5326 16.8252 13.9446L18.7129 19.7545C19.0123 20.6758 17.9578 21.4419 17.1741 20.8725L12.232 17.2818C11.8815 17.0272 11.4069 17.0272 11.0564 17.2818L6.11423 20.8725C5.33051 21.4419 4.27603 20.6758 4.57538 19.7545L6.46312 13.9446C6.59699 13.5326 6.45033 13.0813 6.09985 12.8266L1.15769 9.23593C0.373979 8.66653 0.776753 7.42691 1.74548 7.42691H7.85432C8.28754 7.42691 8.6715 7.14795 8.80537 6.73593L10.6931 0.926075Z" fill="#FFCC4A"/>
</svg>
