<svg width="21" height="17" viewBox="0 0 21 17" fill="none" xmlns="http://www.w3.org/2000/svg">
<g id="Twitter">
<path id="Icon" d="M20.675 2.57841C19.9291 2.90229 19.1399 3.11566 18.3323 3.2118C19.181 2.71518 19.8193 1.92623 20.1273 0.992893C19.3249 1.46176 18.4485 1.79073 17.5357 1.96573C17.1513 1.56315 16.689 1.24289 16.1768 1.02441C15.6647 0.805936 15.1135 0.693803 14.5567 0.694831C12.3022 0.694831 10.4778 2.49148 10.4778 4.70624C10.4762 5.01431 10.5115 5.32146 10.583 5.62113C8.96636 5.54539 7.38337 5.13329 5.93527 4.41118C4.48717 3.68908 3.20585 2.67287 2.17329 1.42757C1.81104 2.03781 1.61946 2.73409 1.61858 3.44362C1.61858 4.83457 2.3448 6.06408 3.44137 6.78439C2.79168 6.76899 2.1553 6.59715 1.58627 6.28348V6.33316C1.58627 8.27884 2.99479 9.89748 4.859 10.2659C4.50844 10.3593 4.14719 10.4066 3.78439 10.4067C3.52695 10.4071 3.2701 10.3822 3.01757 10.3322C3.53582 11.926 5.04418 13.0851 6.83093 13.1182C5.37907 14.2363 3.59656 14.8406 1.76357 14.8362C1.43821 14.8357 1.11316 14.8164 0.790039 14.7782C2.65474 15.9681 4.82232 16.5975 7.03475 16.5914C14.548 16.5914 18.6525 10.477 18.6525 5.17403C18.6525 5.00016 18.648 4.82629 18.6397 4.65657C19.4364 4.09027 20.1256 3.38654 20.675 2.57841Z" fill="white"/>
</g>
</svg>
